<svg width="20" height="20" viewBox="0 0 20 20" fill="none" xmlns="http://www.w3.org/2000/svg">
<circle cx="10" cy="10" r="9.5" fill="#C4C4C4" stroke="white"/>
<path d="M14.75 16C14.75 16.6584 14.6167 17.1044 14.4024 17.413C14.1899 17.7189 13.8782 17.9184 13.4636 18.0467C13.0444 18.1765 12.5332 18.2294 11.9419 18.2478C11.543 18.2603 11.1204 18.2569 10.6736 18.2534C10.4562 18.2517 10.233 18.25 10.0041 18.25C9.77516 18.25 9.552 18.2517 9.33452 18.2534C8.88744 18.2569 8.46439 18.2603 8.06498 18.2478C7.47283 18.2294 6.96057 18.1765 6.54028 18.0467C6.12459 17.9183 5.81181 17.7187 5.5987 17.4127C5.38375 17.1041 5.25 16.6582 5.25 16C5.25 15.3436 5.3831 14.8445 5.60891 14.4615C5.83403 14.0797 6.16137 13.7962 6.57883 13.5862C7.42703 13.1596 8.62446 13.0468 10.0041 13.0468C11.3837 13.0468 12.579 13.1596 13.425 13.5861C13.8414 13.796 14.1678 14.0795 14.3922 14.4612C14.6173 14.8442 14.75 15.3434 14.75 16Z" stroke="white" stroke-width="0.5"/>
<circle cx="10" cy="9" r="3.75" stroke="white" stroke-width="0.5"/>
</svg>
